<svg width="692" height="318" viewBox="0 0 692 318" fill="none" xmlns="http://www.w3.org/2000/svg">
<path d="M24.0763 47.6026C25.0236 33.3935 39.2064 29.0518 46.1794 28.6571C56.9152 31.3411 62.8883 44.1161 64.5329 50.1682C65.9144 54.9046 63.9409 67.5349 58.0204 71.2846C52.178 74.0232 46.8423 80.4777 44.5135 84.2415C46.3236 83.8483 47.8877 83.3726 49.8133 82.7869C51.3572 82.3174 53.1334 81.7771 55.4552 81.152C53.7448 95.0981 43.6142 128.753 16.7747 151.803C8.09132 160.092 1.38145 173.314 0 179.629C0 165.026 6.31518 144.699 18.9455 133.055C29.0498 123.74 25.9185 113.912 23.0899 110.162C15.8537 102.4 7.02564 86.6383 29.6024 85.6911C36.8105 85.3886 40.688 84.9978 43.714 84.4065C40.7595 76.4918 49.8155 64.5548 54.8628 59.4436C56.3758 57.8648 57.6652 54.1546 50.7185 51.9443C43.7718 49.734 37.6934 43.9188 35.5226 41.0901C35.2594 40.7612 34.5753 40.2612 33.9438 40.8928C28.2523 52.6551 33.8682 60.0404 35.8891 62.698C35.9703 62.8049 36.0459 62.9043 36.1146 62.9959C40.0211 68.8557 34.3414 73.7568 31.4385 76.2618L31.4376 76.2625C31.1146 76.5413 30.826 76.7903 30.5888 77.0077C36.4304 69.2716 32.6281 63.259 29.9968 61.2197C28.0233 59.5752 24.0763 54.5493 24.0763 47.6026Z" fill="#1E293B"/>
<path d="M59.2046 80.1653C64.4673 80.2968 73.6901 84.0333 68.48 97.9267C62.0963 114.95 61.7804 115.476 56.752 123.855L56.4417 124.372C52.179 131.476 53.4815 137.857 54.6656 140.159C53.8762 142.33 47.9558 150.106 30.589 163.841C13.2223 177.577 12.1697 215.086 13.8143 232.124C3.02594 219.823 -11.0516 187.089 18.9455 154.566C48.4045 122.626 50.6991 113.222 54.8274 96.3021C55.9537 91.686 57.2165 86.5105 59.2046 80.1653Z" fill="#1E293B"/>
<path d="M54.0739 183.774C69.3882 168.933 61.2442 153.645 55.258 147.856C54.2281 148.779 51.8756 150.525 49.0563 152.617C43.2319 156.94 35.4155 162.742 33.1549 165.815C2.40824 207.608 22.3312 251.291 30.9111 270.103C31.528 271.455 32.0862 272.68 32.5628 273.765C32.5628 238.242 34.931 202.325 54.0739 183.774Z" fill="#1E293B"/>
<path d="M53.4821 190.484C47.0353 214.363 41.207 272.463 69.4674 313.827C68.9771 313.574 68.4525 313.308 67.8984 313.028L67.8744 313.015L67.8689 313.013C55.0277 306.515 26.4099 292.033 39.0756 236.269C39.4047 226.862 42.7467 204.535 53.4821 190.484Z" fill="#1E293B"/>
<path d="M223.399 251.859C174.457 254.543 102.227 149.04 72.2297 95.9532C122.554 204.89 147.486 257.517 175.443 264.687C183.864 264.358 205.243 261.332 223.399 251.859Z" fill="#1E293B"/>
<path d="M71.4404 102.663C92.7541 154.237 143.078 259.674 173.865 268.831C147.341 273.883 133.408 261.371 125.514 253.635C115.647 243.965 86.4389 204.969 71.4404 102.663Z" fill="#1E293B"/>
<path d="M467.712 17.0207L450.691 0L433.67 17.0207L450.691 34.0414L467.712 17.0207Z" fill="#1E293B"/>
<path fill-rule="evenodd" clip-rule="evenodd" d="M450.691 82.1833V58.1124H185.903L209.975 82.1833H234.046V142.169C234.046 155.709 209.223 155.333 209.223 155.333C209.223 155.333 211.913 187.972 217.497 200.466C226.743 221.152 241.945 238.077 282.19 250.488C237.661 219.355 237.386 209.477 236.422 174.908C236.384 173.561 236.345 172.177 236.303 170.753L236.225 170.709C237.959 170.547 242.766 169.806 247.437 166.432H306.261V226.609L330.333 250.68V82.1833H354.404V226.609L378.476 250.68V82.1833H426.619V142.361C426.619 155.901 401.795 155.524 401.795 155.524C401.795 155.524 404.486 188.163 410.07 200.657C419.315 221.343 434.518 238.268 474.762 250.68C430.234 219.547 429.959 209.669 428.994 175.099L428.994 175.081C428.956 173.74 428.918 172.362 428.876 170.945L428.798 170.9C432.48 170.558 450.018 167.602 450.691 142.361C451.443 114.153 450.691 82.1833 450.691 82.1833ZM306.261 142.361V82.1833H258.122C258.183 84.8667 258.836 115.233 258.118 142.169C258.116 142.235 258.114 142.3 258.112 142.366L258.118 142.361H306.261Z" fill="#1E293B"/>
<path fill-rule="evenodd" clip-rule="evenodd" d="M510.87 130.325C506.649 130.325 502.598 129.601 498.834 128.271V130.325C498.834 136.972 504.222 142.361 510.869 142.361H534.941V166.431C534.941 173.078 540.33 178.467 546.977 178.467H571.048V202.538H546.977C542.235 202.538 537.54 201.604 533.159 199.789C528.778 197.975 524.798 195.315 521.445 191.962C518.092 188.61 515.432 184.629 513.618 180.249C511.803 175.868 510.869 171.173 510.869 166.432C506.128 166.432 501.432 165.498 497.052 163.683C492.671 161.869 488.69 159.209 485.338 155.856C481.985 152.503 479.325 148.523 477.511 144.143C475.696 139.762 474.762 135.067 474.762 130.325V94.2188C474.762 74.2778 490.928 58.1124 510.87 58.1124C530.811 58.1124 546.977 74.2778 546.977 94.2188C546.977 114.16 530.811 130.325 510.87 130.325ZM510.87 106.254C517.517 106.254 522.905 100.866 522.905 94.2188C522.905 87.5718 517.517 82.1833 510.87 82.1833C504.222 82.1833 498.834 87.5718 498.834 94.2188C498.834 100.866 504.222 106.254 510.87 106.254Z" fill="#1E293B"/>
<path d="M595.12 82.1833V226.609L571.049 250.68V58.1124L691.407 58.1124L667.335 82.1833L643.263 82.1833V226.609L619.192 250.68V82.1833H595.12Z" fill="#1E293B"/>
<path d="M212.589 302.939L221.378 294.149L230.168 302.939L221.378 311.729L212.589 302.939Z" fill="#1E293B"/>
<path d="M228.334 301.608H270.183V304.508H228.334V301.608Z" fill="#1E293B"/>
<path d="M286.186 282.738L286.24 311.166H302.575L306.818 315.939H286.293L278.867 314.401V280.564L286.186 282.738Z" fill="#1E293B"/>
<path d="M312.992 297.323L310.128 292.497C312.603 291.86 315.344 291.259 318.349 290.694C321.39 290.128 323.299 289.863 324.077 289.898C324.855 289.933 326.41 291.1 328.744 293.398C331.078 295.661 332.651 297.394 333.464 298.596C333.747 299.02 333.889 300.452 333.889 302.892C333.889 305.296 333.836 308.054 333.729 311.166C333.659 314.277 333.641 316.381 333.676 317.477L327.1 315.939L327.153 313.234C324.289 316.098 321.955 317.53 320.152 317.53C318.455 317.495 316.298 315.886 313.682 312.704C311.065 309.522 309.757 307.241 309.757 305.862C309.757 304.766 310.5 303.758 311.985 302.839C313.47 301.92 315.273 301.213 317.394 300.718C319.551 300.187 321.46 299.781 323.122 299.498C324.784 299.215 326.198 299.02 327.365 298.914L327.418 297.482C327.454 295.785 326.552 294.866 324.713 294.724C323.016 294.618 319.445 295.379 314 297.005H313.947L313.894 297.058H313.788L313.735 297.111H313.629L313.576 297.164H313.47L313.417 297.217H313.257L313.204 297.27H313.098L313.045 297.323H312.992ZM315.644 310.635C315.962 311.13 316.563 311.449 317.447 311.59C318.331 311.731 319.657 311.502 321.425 310.901C323.228 310.264 325.173 309.168 327.259 307.612L327.312 302.945C317.978 305.668 314.088 308.231 315.644 310.635Z" fill="#1E293B"/>
<path d="M347.713 313.234C350.507 314.648 353.883 313.959 357.843 311.166V296.262C356.818 295.661 355.386 295.255 353.547 295.043C352.098 294.901 350.683 295.644 349.304 297.27C347.925 298.861 346.882 300.718 346.175 302.839C345.468 304.96 345.203 307.064 345.38 309.15C345.592 311.201 346.37 312.562 347.713 313.234ZM357.843 278.283L364.473 279.768C364.685 303.635 364.685 315.674 364.473 315.886C364.296 315.921 363.377 316.116 361.715 316.469C360.088 316.858 359.045 317.088 358.586 317.159C358.126 317.23 357.171 317.336 355.722 317.477C354.307 317.618 353.176 317.618 352.327 317.477C351.514 317.336 350.489 317.088 349.251 316.734C348.014 316.416 346.829 315.939 345.698 315.303C343.682 314.206 342.127 312.863 341.031 311.272C339.935 309.681 339.351 308.054 339.28 306.392C339.21 304.731 339.404 303.051 339.864 301.354C340.324 299.621 341.048 298.048 342.038 296.634C343.064 295.184 344.142 293.911 345.274 292.815C346.44 291.719 347.66 290.941 348.933 290.482C350.206 289.987 351.337 289.898 352.327 290.216C352.787 290.358 353.264 290.57 353.759 290.853C354.29 291.1 354.714 291.33 355.032 291.542C355.386 291.754 355.863 292.073 356.464 292.497C357.101 292.921 357.56 293.222 357.843 293.398V278.283Z" fill="#1E293B"/>
<path d="M375.341 287.352C373.537 286.504 372.194 285.213 371.31 283.481C371.381 282.915 371.911 282.19 372.901 281.306C373.891 280.422 374.687 279.91 375.288 279.768C377.091 280.581 378.417 281.837 379.265 283.534C378.664 285.054 377.356 286.327 375.341 287.352ZM378.523 292.073V317.477L371.893 315.992V290.588L378.523 292.073Z" fill="#1E293B"/>
<path d="M391.377 305.385L403.416 297.164C400.871 295.538 398.696 294.937 396.893 295.361C395.125 295.785 393.764 296.899 392.809 298.702C391.854 300.47 391.377 302.698 391.377 305.385ZM392.597 310.476C393.587 311.678 394.701 312.421 395.938 312.704C397.176 312.987 398.466 312.827 399.81 312.226C401.189 311.59 402.338 310.971 403.257 310.37C404.177 309.734 405.255 308.903 406.493 307.877L407.553 308.938C408.225 309.681 408.897 310.423 409.569 311.166L410.629 312.226C407.553 314.489 404.954 315.992 402.833 316.734C400.712 317.512 398.608 317.512 396.522 316.734C393.481 315.568 390.617 313.517 387.93 310.582C386.339 308.814 385.419 306.728 385.172 304.324C384.924 301.884 385.225 299.621 386.073 297.535C386.957 295.449 388.301 293.681 390.104 292.232C391.943 290.747 393.941 290.004 396.097 290.004C397.512 290.004 399.598 290.923 402.356 292.762C405.149 294.565 407.465 296.333 409.303 298.066C409.268 298.172 407.854 299.268 405.061 301.354C402.303 303.405 399.527 305.438 396.734 307.453L392.597 310.476Z" fill="#1E293B"/>
<path d="M434.004 292.338L433.421 295.202C429.991 294.424 427.728 294.106 426.632 294.247C424.9 294.459 423.538 295.308 422.548 296.793C421.558 298.242 421.205 299.639 421.488 300.983C421.558 301.301 422.372 301.266 423.927 300.877C425.483 300.488 427.18 300.099 429.019 299.71C430.857 299.286 432.042 299.215 432.572 299.498C435.012 300.771 436.656 302.45 437.505 304.536C438.353 306.622 438.442 308.62 437.77 310.529C437.133 312.403 435.808 314.03 433.792 315.409C431.777 316.788 429.355 317.477 426.526 317.477C424.193 317.477 422.018 316.841 420.003 315.568C418.023 314.259 415.689 312.315 413.002 309.734L413.957 307.93C416.361 309.734 418.907 310.954 421.594 311.59C424.281 312.191 426.774 311.944 429.072 310.847C431.406 309.751 432.961 307.736 433.739 304.801C433.774 304.66 433.615 304.607 433.262 304.642C432.873 304.678 431.901 304.907 430.345 305.332C425.43 306.64 422.301 307.029 420.957 306.498L420.48 306.233C418.535 304.748 416.962 303.122 415.76 301.354C414.876 300.152 414.505 298.879 414.646 297.535C414.823 296.192 415.282 294.972 416.025 293.876C416.768 292.744 417.881 291.825 419.366 291.118C420.851 290.375 422.478 290.004 424.246 290.004C424.776 290.004 425.518 290.11 426.473 290.322C427.463 290.535 428.842 290.906 430.61 291.436C432.413 291.931 433.545 292.232 434.004 292.338Z" fill="#1E293B"/>
<path d="M472.198 315.303L472.251 315.196L458.037 280.617L465.409 282.155L475.168 306.552L483.866 280.617L491.821 282.155L501.58 306.552L510.278 280.617L518.234 282.155L506.46 317.477L498.61 315.303L498.663 315.196L488.745 291.277L480.047 317.477L472.198 315.303Z" fill="#1E293B"/>
<path d="M525.574 305.385L537.613 297.164C535.067 295.538 532.893 294.937 531.089 295.361C529.322 295.785 527.96 296.899 527.006 298.702C526.051 300.47 525.574 302.698 525.574 305.385ZM526.794 310.476C527.784 311.678 528.897 312.421 530.135 312.704C531.372 312.987 532.663 312.827 534.007 312.226C535.385 311.59 536.535 310.971 537.454 310.37C538.373 309.734 539.452 308.903 540.689 307.877L541.75 308.938C542.422 309.681 543.093 310.423 543.765 311.166L544.826 312.226C541.75 314.489 539.151 315.992 537.03 316.734C534.908 317.512 532.804 317.512 530.718 316.734C527.678 315.568 524.814 313.517 522.126 310.582C520.535 308.814 519.616 306.728 519.368 304.324C519.121 301.884 519.421 299.621 520.27 297.535C521.154 295.449 522.498 293.681 524.301 292.232C526.139 290.747 528.137 290.004 530.294 290.004C531.708 290.004 533.794 290.923 536.552 292.762C539.345 294.565 541.661 296.333 543.5 298.066C543.465 298.172 542.05 299.268 539.257 301.354C536.499 303.405 533.724 305.438 530.93 307.453L526.794 310.476Z" fill="#1E293B"/>
<path d="M551.76 297.323L548.896 292.497C551.371 291.86 554.111 291.259 557.116 290.694C560.157 290.128 562.066 289.863 562.844 289.898C563.622 289.933 565.178 291.1 567.511 293.398C569.845 295.661 571.418 297.394 572.232 298.596C572.514 299.02 572.656 300.452 572.656 302.892C572.656 305.296 572.603 308.054 572.497 311.166C572.426 314.277 572.408 316.381 572.444 317.477L565.867 315.939L565.92 313.234C563.056 316.098 560.723 317.53 558.919 317.53C557.222 317.495 555.066 315.886 552.449 312.704C549.833 309.522 548.524 307.241 548.524 305.862C548.524 304.766 549.267 303.758 550.752 302.839C552.237 301.92 554.04 301.213 556.162 300.718C558.318 300.187 560.228 299.781 561.89 299.498C563.551 299.215 564.966 299.02 566.132 298.914L566.185 297.482C566.221 295.785 565.319 294.866 563.481 294.724C561.783 294.618 558.212 295.379 552.767 297.005H552.714L552.661 297.058H552.555L552.502 297.111H552.396L552.343 297.164H552.237L552.184 297.217H552.025L551.972 297.27H551.866L551.813 297.323H551.76ZM554.411 310.635C554.73 311.13 555.331 311.449 556.215 311.59C557.099 311.731 558.425 311.502 560.192 310.901C561.996 310.264 563.94 309.168 566.026 307.612L566.079 302.945C556.745 305.668 552.856 308.231 554.411 310.635Z" fill="#1E293B"/>
<path d="M585.632 292.073V295.997C588.213 291.931 590.405 289.898 592.209 289.898C593.092 289.898 594.578 290.358 596.664 291.277C598.75 292.161 600.5 293.08 601.914 294.035L598.255 299.339C596.063 297.712 594.153 296.828 592.527 296.687C590.936 296.51 589.663 296.828 588.708 297.641C587.753 298.419 586.728 299.692 585.632 301.46V317.477L579.003 315.992V290.588L585.632 292.073Z" fill="#1E293B"/>
<path d="M664.721 302.939L655.931 294.149L647.142 302.939L655.931 311.729L664.721 302.939Z" fill="#1E293B"/>
<path d="M648.976 301.608H607.127V304.508H648.976V301.608Z" fill="#1E293B"/>
</svg>
